<svg xmlns="http://www.w3.org/2000/svg" viewBox="0 0 32 32" width="32" height="32">
  <defs>
    <filter id="glow" x="-60%" y="-60%" width="220%" height="220%">
      <feGaussianBlur stdDeviation="1.35" result="blur"/>
    </filter>
    <clipPath id="roundedClip">
      <rect x="0" y="0" width="32" height="32" rx="6" ry="6"/>
    </clipPath>
  </defs>
  <g clip-path="url(#roundedClip)">
    
    <g transform="translate(2.3360,7.7591) scale(0.041180)">
    <g transform="translate(-14.923062,414.233394) scale(0.100000,-0.100000)" fill="#ffffff" stroke="none" filter="url(#glow)" opacity="0.85">
      <path d="M2935 4140 c-370 -5 -370 -5 -438 -37 -106 -51 -157 -111 -293 -351 -366 -646 -485 -856 -757 -1332 -165 -289 -357 -626 -427 -750 -70 -124 -295 -517 -499 -875 l-372 -650 418 -3 c375 -2 422 -1 456 14 49 22 48 22 375 609 l101 180 470 3 c471 2 471 2 471 -20 0 -13 -29 -194 -63 -403 l-63 -380 460 -3 c252 -1 461 0 463 2 7 6 127 612 177 891 79 444 135 816 241 1600 84 628 184 1489 174 1499 -8 7 -524 11 -894 6z m-150 -943 c3 -14 -18 -180 -45 -369 -60 -409 -188 -1244 -195 -1275 -5 -23 -5 -23 -370 -23 -201 0 -365 3 -365 8 0 4 66 122 146 262 80 140 177 309 214 375 137 245 559 983 582 1017 13 20 24 34 26 33 2 -1 5 -14 7 -28z M4651 3139 c-161 -31 -327 -123 -448 -248 -73 -75 -115 -135 -165 -236 -48 -96 -51 -104 -253 -755 -37 -118 -87 -278 -111 -355 -24 -77 -66 -214 -94 -305 -29 -91 -67 -210 -85 -266 -63 -193 -79 -271 -79 -389 0 -129 18 -198 73 -278 41 -58 104 -105 189 -139 55 -22 69 -23 396 -26 391 -4 430 1 583 73 107 50 162 87 228 150 26 25 48 45 50 43 2 -2 -15 -59 -36 -128 -21 -68 -39 -128 -39 -132 0 -5 216 -8 480 -8 l479 0 120 368 c111 342 379 1169 493 1522 27 85 78 243 113 350 35 107 102 319 150 470 47 151 88 281 90 288 4 9 -209 12 -1043 11 -576 -1 -1067 -5 -1091 -10z m925 -686 c-3 -10 -22 -70 -41 -133 -66 -212 -244 -773 -342 -1077 -89 -278 -136 -351 -263 -412 -54 -25 -60 -26 -253 -26 -199 0 -199 0 -229 34 -28 32 -30 38 -25 90 3 31 28 128 57 216 28 88 87 273 131 410 137 427 231 709 246 740 44 86 121 148 204 164 24 5 151 9 282 10 223 1 238 0 233 -16z"/>
    </g>
  </g>
    <g transform="translate(4.8000,9.2452) scale(0.033754)">
    <g transform="translate(-14.923062,414.233394) scale(0.100000,-0.100000)" fill="#ffffff" stroke="none" >
      <path d="M2935 4140 c-370 -5 -370 -5 -438 -37 -106 -51 -157 -111 -293 -351 -366 -646 -485 -856 -757 -1332 -165 -289 -357 -626 -427 -750 -70 -124 -295 -517 -499 -875 l-372 -650 418 -3 c375 -2 422 -1 456 14 49 22 48 22 375 609 l101 180 470 3 c471 2 471 2 471 -20 0 -13 -29 -194 -63 -403 l-63 -380 460 -3 c252 -1 461 0 463 2 7 6 127 612 177 891 79 444 135 816 241 1600 84 628 184 1489 174 1499 -8 7 -524 11 -894 6z m-150 -943 c3 -14 -18 -180 -45 -369 -60 -409 -188 -1244 -195 -1275 -5 -23 -5 -23 -370 -23 -201 0 -365 3 -365 8 0 4 66 122 146 262 80 140 177 309 214 375 137 245 559 983 582 1017 13 20 24 34 26 33 2 -1 5 -14 7 -28z M4651 3139 c-161 -31 -327 -123 -448 -248 -73 -75 -115 -135 -165 -236 -48 -96 -51 -104 -253 -755 -37 -118 -87 -278 -111 -355 -24 -77 -66 -214 -94 -305 -29 -91 -67 -210 -85 -266 -63 -193 -79 -271 -79 -389 0 -129 18 -198 73 -278 41 -58 104 -105 189 -139 55 -22 69 -23 396 -26 391 -4 430 1 583 73 107 50 162 87 228 150 26 25 48 45 50 43 2 -2 -15 -59 -36 -128 -21 -68 -39 -128 -39 -132 0 -5 216 -8 480 -8 l479 0 120 368 c111 342 379 1169 493 1522 27 85 78 243 113 350 35 107 102 319 150 470 47 151 88 281 90 288 4 9 -209 12 -1043 11 -576 -1 -1067 -5 -1091 -10z m925 -686 c-3 -10 -22 -70 -41 -133 -66 -212 -244 -773 -342 -1077 -89 -278 -136 -351 -263 -412 -54 -25 -60 -26 -253 -26 -199 0 -199 0 -229 34 -28 32 -30 38 -25 90 3 31 28 128 57 216 28 88 87 273 131 410 137 427 231 709 246 740 44 86 121 148 204 164 24 5 151 9 282 10 223 1 238 0 233 -16z"/>
    </g>
  </g>
  </g>
</svg>